<?xml version="1.0" encoding="UTF-8"?>
<!-- Generator: visioncortex VTracer 0.6.5 -->
<svg version="1.1" xmlns="http://www.w3.org/2000/svg" width="1500" height="1500">
<path d="M0 0 C0.76 0.08 1.53 0.17 2.31 0.26 C79.65 8.96 153.65 31.64 257.39 85.42 C259.78 86.87 262.19 88.3 264.61 89.72 C283.49 100.96 301.65 113.52 319 127 C319.61 127.47 320.22 127.94 320.84 128.43 C331.39 136.6 341.81 144.9 351.68 153.89 C353.72 155.75 355.79 157.57 357.88 159.38 C367.61 167.88 376.93 176.77 386.06 185.93 C387.82 187.7 389.6 189.47 391.37 191.24 C397.13 196.99 402.73 202.79 408 209 C409.45 210.61 410.91 212.21 412.38 213.81 C417.11 219.06 421.57 224.5 426 230 C426.91 231.12 427.83 232.24 428.74 233.36 C450.48 260.12 470.14 288.93 487 319 C487.49 319.87 487.98 320.74 488.49 321.64 C528.44 392.77 554.58 470.8 568 577 C568.06 577.56 568.06 577.56 568.36 580.38 C572.48 620.45 571.48 662 567 702 C566.92 702.76 566.83 703.53 566.74 704.31 C558.04 781.66 535.34 855.62 475 970 C459.51 963.13 444.17 955.96 428.84 948.74 C421.9 945.48 414.95 942.24 408 939 C409.22 935.79 410.55 932.89 412.36 929.98 C412.83 929.22 413.3 928.46 413.78 927.67 C414.03 927.26 414.03 927.26 415.31 925.19 C460.99 849.92 488.27 763.6 496 646 C496.01 645.56 496.01 645.56 496.07 643.31 C497.47 580.04 487.23 515.91 467 456 C466.61 454.83 466.21 453.67 465.81 452.46 C444.37 389.44 412.14 328.93 369 278 C368.11 276.93 367.22 275.87 366.32 274.8 C361.41 268.94 356.42 263.16 351.27 257.51 C350.05 256.16 348.84 254.81 347.67 253.42 C342.11 246.88 336.02 240.87 329.95 234.82 C328.07 232.94 326.19 231.06 324.31 229.18 C318.38 223.24 312.43 217.4 306 212 C304.88 211.03 303.76 210.05 302.65 209.08 C295.19 202.62 287.6 196.38 279.77 190.37 C278.05 189.04 276.33 187.69 274.62 186.35 C207.47 134.31 127.15 98.88 -56 71 C-56.44 70.99 -56.44 70.99 -58.69 70.93 C-121.96 69.53 -186.09 79.77 -246 100 C-246.58 100.2 -246.58 100.2 -249.54 101.19 C-312.56 122.63 -373.07 154.86 -424 198 C-425.07 198.89 -426.13 199.78 -427.2 200.68 C-433.06 205.59 -438.84 210.58 -444.49 215.73 C-445.84 216.95 -447.19 218.16 -448.58 219.33 C-455.12 224.89 -461.13 230.98 -467.18 237.05 C-469.06 238.93 -470.94 240.81 -472.82 242.69 C-478.76 248.62 -484.6 254.57 -490 261 C-490.97 262.12 -491.95 263.24 -492.92 264.35 C-499.38 271.81 -505.62 279.4 -511.63 287.23 C-512.96 288.95 -514.31 290.67 -515.65 292.38 C-567.69 359.53 -603.12 439.85 -631 623 C-631.01 623.44 -631.01 623.44 -631.07 625.69 C-632.47 688.96 -622.23 753.09 -602 813 C-601.8 813.58 -601.8 813.58 -600.81 816.54 C-579.37 879.56 -547.14 940.07 -504 991 C-503.11 992.07 -502.22 993.13 -501.32 994.2 C-496.41 1000.06 -491.42 1005.84 -486.27 1011.49 C-485.05 1012.84 -483.84 1014.19 -482.67 1015.58 C-477.11 1022.12 -471.02 1028.13 -464.95 1034.18 C-463.07 1036.06 -461.19 1037.94 -459.31 1039.82 C-453.38 1045.76 -447.43 1051.6 -441 1057 C-439.88 1057.97 -438.76 1058.95 -437.65 1059.92 C-430.19 1066.38 -422.6 1072.62 -414.77 1078.63 C-413.05 1079.96 -411.33 1081.31 -409.62 1082.65 C-342.47 1134.69 -262.15 1170.12 -79 1198 C-78.56 1198.01 -78.56 1198.01 -76.31 1198.07 C-13.04 1199.47 51.09 1189.23 111 1169 C112.17 1168.61 113.33 1168.21 114.54 1167.81 C138.5 1159.66 161.67 1149.92 184.37 1138.74 C186 1138 186 1138 187 1138 C187.33 1164.73 187.66 1191.46 188 1219 C157.15 1232.05 157.15 1232.05 144.12 1236.56 C143.36 1236.83 142.6 1237.1 141.81 1237.37 C124.44 1243.42 106.82 1248.44 89 1253 C88.34 1253.17 87.69 1253.34 87.01 1253.51 C55.12 1261.69 22.73 1266.72 -10 1270 C-10.56 1270.06 -10.56 1270.06 -13.38 1270.36 C-53.45 1274.48 -95 1273.48 -135 1269 C-135.76 1268.92 -136.53 1268.83 -137.31 1268.74 C-214.65 1260.04 -288.65 1237.36 -392.39 1183.58 C-394.78 1182.13 -397.19 1180.7 -399.61 1179.28 C-418.49 1168.04 -436.65 1155.48 -454 1142 C-454.3 1141.76 -454.3 1141.76 -455.84 1140.57 C-466.39 1132.4 -476.81 1124.1 -486.68 1115.11 C-488.72 1113.25 -490.79 1111.43 -492.88 1109.62 C-502.61 1101.12 -511.93 1092.23 -521.06 1083.07 C-522.82 1081.3 -524.6 1079.53 -526.37 1077.76 C-532.13 1072.01 -537.73 1066.21 -543 1060 C-544.45 1058.39 -545.91 1056.79 -547.38 1055.19 C-552.11 1049.94 -556.57 1044.5 -561 1039 C-561.91 1037.88 -562.83 1036.76 -563.74 1035.64 C-585.48 1008.88 -605.14 980.07 -622 950 C-622.49 949.13 -622.98 948.26 -623.49 947.36 C-663.44 876.23 -689.58 798.2 -703 692 C-703.12 690.88 -703.24 689.77 -703.36 688.62 C-707.48 648.55 -706.48 607 -702 567 C-701.92 566.24 -701.83 565.47 -701.74 564.69 C-693.04 487.35 -670.36 413.35 -616.58 309.61 C-615.13 307.22 -613.7 304.81 -612.28 302.39 C-601.04 283.51 -588.48 265.35 -575 248 C-574.76 247.7 -574.76 247.7 -573.57 246.16 C-565.4 235.61 -557.1 225.19 -548.11 215.32 C-546.25 213.28 -544.43 211.21 -542.62 209.12 C-534.12 199.39 -525.23 190.07 -516.07 180.94 C-514.3 179.18 -512.53 177.4 -510.76 175.63 C-505.01 169.87 -499.21 164.27 -493 159 C-491.39 157.55 -489.79 156.09 -488.19 154.62 C-482.94 149.89 -477.5 145.43 -472 141 C-470.88 140.09 -469.76 139.17 -468.64 138.26 C-441.88 116.52 -413.07 96.86 -383 80 C-382.13 79.51 -381.26 79.02 -380.36 78.51 C-309.23 38.56 -231.2 12.42 -125 -1 C-123.88 -1.12 -122.77 -1.24 -121.62 -1.36 C-81.55 -5.48 -40 -4.48 0 0 Z " fill="#00AAFD" transform="translate(817,115)"/>
<path d="M0 0 C5.74 3.49 11.57 6.83 17.39 10.18 C19.64 11.47 21.89 12.77 24.14 14.06 C25.27 14.71 26.39 15.36 27.56 16.03 C33.02 19.18 38.49 22.34 43.95 25.49 C46.12 26.74 48.29 27.99 50.45 29.24 C56.95 32.99 56.95 32.99 89.45 51.74 C90.53 52.36 91.6 52.98 92.7 53.61 C94.87 54.86 97.03 56.11 99.2 57.36 C104.64 60.5 110.08 63.64 115.52 66.77 C125.98 72.8 136.42 78.83 146.83 84.93 C155.51 90 164.22 95.01 172.95 99.99 C182.67 105.53 192.36 111.12 202.02 116.77 C212.54 122.93 223.11 129.01 233.67 135.1 C239.1 138.23 244.53 141.36 249.95 144.49 C252.12 145.74 254.29 146.99 256.45 148.24 C269.45 155.74 282.45 163.24 295.45 170.74 C296.53 171.36 297.6 171.98 298.7 172.61 C300.87 173.86 303.03 175.11 305.19 176.36 C310.66 179.51 316.12 182.66 321.59 185.81 C328.05 189.52 334.51 193.25 340.95 196.99 C342 197.6 343.05 198.2 344.13 198.83 C347.16 200.58 350.18 202.35 353.2 204.11 C353.65 204.37 353.65 204.37 355.93 205.69 C367.44 212.46 375.31 220.81 378.95 233.99 C381.18 247.03 379.42 257.99 371.95 268.99 C361.82 282.53 342.94 283.99 327.46 287.2 C325.14 287.69 322.81 288.18 320.49 288.67 C315.57 289.71 310.65 290.74 305.72 291.77 C298.04 293.37 290.37 294.99 282.69 296.61 C261.96 300.98 241.23 305.31 220.49 309.61 C214.71 310.81 208.93 312.01 203.15 313.22 C199.48 313.99 195.81 314.75 192.13 315.5 C161.13 321.81 133.17 330.66 111.93 355.69 C109.5 358.51 106.98 361.25 104.45 363.99 C101.41 367.29 98.39 370.6 95.45 373.99 C92.05 377.92 88.52 381.74 85 385.57 C82.45 388.34 79.92 391.14 77.45 393.99 C74.51 397.38 71.49 400.69 68.45 403.99 C64.83 407.92 61.26 411.89 57.76 415.93 C54.68 419.44 51.51 422.88 48.36 426.34 C46.38 428.51 44.44 430.71 42.52 432.93 C39.09 436.87 35.54 440.72 32 444.57 C29.45 447.34 26.92 450.14 24.45 452.99 C21.05 456.92 17.52 460.74 14 464.57 C11.45 467.34 8.92 470.14 6.45 472.99 C-15.61 498.33 -15.61 498.33 -23.7 499.31 C-49.83 500.04 -49.83 500.04 -59.05 492.99 C-59.65 492.59 -60.25 492.2 -60.87 491.79 C-68.71 486.16 -73.72 475.57 -75.59 466.31 C-76.09 462.67 -76.19 459.11 -76.18 455.44 C-76.18 454.7 -76.18 453.96 -76.18 453.19 C-76.19 450.7 -76.19 448.21 -76.19 445.72 C-76.19 443.92 -76.19 442.11 -76.2 440.31 C-76.2 435.35 -76.21 430.4 -76.21 425.44 C-76.21 420.09 -76.22 414.75 -76.22 409.4 C-76.24 397.71 -76.24 386.02 -76.25 374.33 C-76.25 367.03 -76.25 359.73 -76.26 352.43 C-76.27 332.22 -76.28 312.01 -76.28 291.79 C-76.28 290.5 -76.28 289.21 -76.29 287.87 C-76.29 287.22 -76.29 287.22 -76.29 283.94 C-76.29 281.32 -76.29 278.69 -76.29 276.06 C-76.29 274.76 -76.29 273.45 -76.29 272.11 C-76.29 250.99 -76.31 229.88 -76.33 208.76 C-76.36 187.08 -76.37 165.39 -76.37 143.71 C-76.37 131.54 -76.38 119.36 -76.39 107.19 C-76.41 96.82 -76.42 86.46 -76.41 76.09 C-76.4 70.8 -76.4 65.52 -76.42 60.23 C-76.43 55.38 -76.43 50.54 -76.42 45.69 C-76.42 43.95 -76.42 42.2 -76.43 40.45 C-76.5 24.45 -74.73 9.94 -63.05 -2.01 C-60.18 -4.28 -57.21 -6.19 -54.05 -8.01 C-53.34 -8.43 -52.64 -8.85 -51.91 -9.28 C-33.95 -18.18 -15.5 -9.41 0 0 Z " fill="#000000" transform="translate(1094.046875,1001.01171875)"/>
</svg>
